<?xml version="1.0" encoding="utf-8"?>
<!-- Generator: Adobe Illustrator 26.4.1, SVG Export Plug-In . SVG Version: 6.00 Build 0)  -->
<svg version="1.1" id="Layer_1" xmlns="http://www.w3.org/2000/svg" xmlns:xlink="http://www.w3.org/1999/xlink" x="0px" y="0px"
	 viewBox="0 0 57.4 86.5" style="enable-background:new 0 0 57.4 86.5;" xml:space="preserve">
<style type="text/css">
	.st0{fill:#1185FE;}
</style>
<path class="st0" d="M13.1,40.2c6.3,4.7,13.1,14.3,15.5,19.4c2.5-5.1,9.3-14.7,15.5-19.4c4.5-3.4,11.9-6,11.9,2.3
	c0,1.7-1,14.1-1.5,16.1c-2,7-9.1,8.8-15.5,7.7c11.1,1.9,13.9,8.1,7.8,14.4c-11.6,11.9-16.6-3-17.9-6.8c-0.2-0.7-0.3-1-0.4-0.7
	c0-0.3-0.1,0-0.4,0.7c-1.3,3.8-6.4,18.7-17.9,6.8c-6.1-6.3-3.3-12.5,7.8-14.4c-6.4,1.1-13.5-0.7-15.5-7.7c-0.6-2-1.5-14.4-1.5-16.1
	C1.2,34.1,8.6,36.8,13.1,40.2L13.1,40.2z"/>
</svg>
