<?xml version="1.0" encoding="UTF-8" standalone="no"?>
<!-- Created with Inkscape (http://www.inkscape.org/) -->
<svg xmlns:dc="http://purl.org/dc/elements/1.1/" xmlns:cc="http://creativecommons.org/ns#" xmlns:rdf="http://www.w3.org/1999/02/22-rdf-syntax-ns#" xmlns:svg="http://www.w3.org/2000/svg" xmlns="http://www.w3.org/2000/svg" xmlns:xlink="http://www.w3.org/1999/xlink" xmlns:sodipodi="http://sodipodi.sourceforge.net/DTD/sodipodi-0.dtd" xmlns:inkscape="http://www.inkscape.org/namespaces/inkscape" width="640px" height="480px" id="svg5319" version="1.1" inkscape:version="0.48.1 " sodipodi:docname="New document 5">
  <defs id="defs5321">
    <inkscape:path-effect effect="skeletal" id="path-effect5849" is_visible="true" pattern="M 0,0 0,10 10,5 z" copytype="single_stretched" prop_scale="1" scale_y_rel="false" spacing="0" normal_offset="0" tang_offset="0" prop_units="false" vertical_pattern="false" fuse_tolerance="0"/>
    <inkscape:path-effect effect="skeletal" id="path-effect5337" is_visible="true" pattern="M 0,0 0,10 10,5 z" copytype="single_stretched" prop_scale="1" scale_y_rel="false" spacing="0" normal_offset="0" tang_offset="0" prop_units="false" vertical_pattern="false" fuse_tolerance="0"/>
    <inkscape:path-effect effect="skeletal" id="path-effect5333" is_visible="true" pattern="M 0,0 0,10 10,5 z" copytype="single_stretched" prop_scale="1" scale_y_rel="false" spacing="0" normal_offset="0" tang_offset="0" prop_units="false" vertical_pattern="false" fuse_tolerance="0"/>
    <inkscape:path-effect effect="skeletal" id="path-effect5329" is_visible="true" pattern="M 0,0 0,10 10,5 z" copytype="single_stretched" prop_scale="1" scale_y_rel="false" spacing="0" normal_offset="0" tang_offset="0" prop_units="false" vertical_pattern="false" fuse_tolerance="0"/>
    <radialGradient inkscape:collect="always" xlink:href="#linearGradient6057" id="radialGradient6065" cx="24.017387" cy="23.63007" fx="24.017387" fy="23.63007" r="1.339462" gradientTransform="matrix(0.9423219,0.00653969,-0.00694625,1.000903,1.5494266,-0.17840409)" gradientUnits="userSpaceOnUse"/>
    <linearGradient inkscape:collect="always" id="linearGradient6057">
      <stop style="stop-color:#dce28c;stop-opacity:1" offset="0" id="stop6059"/>
      <stop style="stop-color:#eca35d;stop-opacity:1" offset="1" id="stop6061"/>
    </linearGradient>
    <radialGradient inkscape:collect="always" xlink:href="#linearGradient6047" id="radialGradient6055" cx="24.027107" cy="23.659767" fx="24.027107" fy="23.659767" r="9.8614035" gradientTransform="matrix(1,0,0,0.99067703,0,0.22057938)" gradientUnits="userSpaceOnUse"/>
    <linearGradient inkscape:collect="always" id="linearGradient6047">
      <stop style="stop-color:#c07090;stop-opacity:1" offset="0" id="stop6049"/>
      <stop style="stop-color:#4130df;stop-opacity:1" offset="1" id="stop6051"/>
    </linearGradient>
    <radialGradient inkscape:collect="always" xlink:href="#linearGradient6047" id="radialGradient6241" cx="24.027107" cy="23.659767" fx="24.027107" fy="23.659767" r="9.8614035" gradientTransform="matrix(1,0,0,0.99067703,0,0.22057938)" gradientUnits="userSpaceOnUse"/>
    <radialGradient inkscape:collect="always" xlink:href="#linearGradient6047" id="radialGradient6249" cx="24.027107" cy="23.659767" fx="24.027107" fy="23.659767" r="9.8614035" gradientTransform="matrix(1,0,0,0.99067703,0,0.22057938)" gradientUnits="userSpaceOnUse"/>
    <radialGradient inkscape:collect="always" xlink:href="#linearGradient6047" id="radialGradient6257" cx="24.027107" cy="23.659767" fx="24.027107" fy="23.659767" r="9.8614035" gradientTransform="matrix(1,0,0,0.99067703,0,0.22057938)" gradientUnits="userSpaceOnUse"/>
    <radialGradient inkscape:collect="always" xlink:href="#linearGradient6057" id="radialGradient6193" gradientUnits="userSpaceOnUse" gradientTransform="matrix(1.2353972,0.00857362,-0.00910663,1.3121978,-5.4006388,-7.5705453)" cx="24.017387" cy="23.63007" fx="24.017387" fy="23.63007" r="1.339462"/>
    <filter color-interpolation-filters="sRGB" inkscape:collect="always" id="filter6211" x="-0.21147823" width="1.4229565" y="-0.21142925" height="1.4228585">
      <feGaussianBlur inkscape:collect="always" stdDeviation="0.30947258" id="feGaussianBlur6213"/>
    </filter>
    <radialGradient r="9.8614035" fy="23.659767" fx="24.027107" cy="23.659767" cx="24.027107" gradientTransform="matrix(1,0,0,0.99067703,0,0.22057938)" gradientUnits="userSpaceOnUse" id="radialGradient6281" xlink:href="#linearGradient6047" inkscape:collect="always"/>
    <radialGradient r="9.8614035" fy="23.659767" fx="24.027107" cy="23.659767" cx="24.027107" gradientTransform="matrix(1,0,0,0.99067703,0,0.22057938)" gradientUnits="userSpaceOnUse" id="radialGradient6283" xlink:href="#linearGradient6047" inkscape:collect="always"/>
    <radialGradient r="9.8614035" fy="23.659767" fx="24.027107" cy="23.659767" cx="24.027107" gradientTransform="matrix(1,0,0,0.99067703,0,0.22057938)" gradientUnits="userSpaceOnUse" id="radialGradient6285" xlink:href="#linearGradient6047" inkscape:collect="always"/>
    <radialGradient r="1.339462" fy="23.63007" fx="24.017387" cy="23.63007" cx="24.017387" gradientTransform="matrix(1.2353972,0.00857362,-0.00910663,1.3121978,-5.4006388,-7.5705453)" gradientUnits="userSpaceOnUse" id="radialGradient6287" xlink:href="#linearGradient6057" inkscape:collect="always"/>
    <radialGradient inkscape:collect="always" xlink:href="#linearGradient6047" id="radialGradient6368" gradientUnits="userSpaceOnUse" gradientTransform="matrix(1,0,0,0.99067703,0,0.22057938)" cx="24.027107" cy="23.659767" fx="24.027107" fy="23.659767" r="9.8614035"/>
  </defs>
  <sodipodi:namedview id="base" pagecolor="#ffffff" bordercolor="#666666" borderopacity="1.0" inkscape:pageopacity="0.0" inkscape:pageshadow="2" inkscape:zoom="0.77472527" inkscape:cx="267.24151" inkscape:cy="332.5455" inkscape:current-layer="layer1" inkscape:document-units="px" showgrid="false" inkscape:window-width="1440" inkscape:window-height="844" inkscape:window-x="-4" inkscape:window-y="-4" inkscape:window-maximized="1"/>
  <g id="layer1" inkscape:label="Layer 1" inkscape:groupmode="layer">
    <g transform="matrix(20.942732,0,0,20.942732,-185.13601,-272.11946)" id="g6215">
      <path inkscape:connector-curvature="0" style="fill:url(#radialGradient6065);fill-opacity:1;fill-rule:nonzero;stroke:none" id="path5253" d="m 25.356849,23.63007 c 1.11e-4,0.478618 -0.255165,0.920926 -0.669641,1.160267 -0.414477,0.239341 -0.925165,0.239341 -1.339642,0 -0.414476,-0.239341 -0.669752,-0.681649 -0.669641,-1.160267 -1.11e-4,-0.478618 0.255165,-0.920926 0.669641,-1.160267 0.414477,-0.23934 0.925165,-0.23934 1.339642,0 0.414476,0.239341 0.669752,0.681649 0.669641,1.160267 0,0 0,0 0,0"/>
      <g style="fill:url(#radialGradient6368);fill-opacity:1" id="g2030">
        <path inkscape:connector-curvature="0" id="path5990" d="m 25.976997,23.731575 c 0.711821,-0.342682 3.804081,-0.124031 3.804081,-0.124031 0,0 -3.10787,0.777014 -3.772177,0.427008 -0.4085,-0.215228 -0.437333,-0.107798 -0.03191,-0.302977 0,0 10e-7,0 10e-7,0 m -0.511075,1.212475 c 0.782581,0.108146 3.247256,2.007613 3.247256,2.007613 0,0 -2.918293,-1.234234 -3.235054,-1.915022 -0.194785,-0.418635 -0.457933,-0.154187 -0.0122,-0.09259 0,0 0,0 0,0 m -0.894292,0.568999 c 0.552828,0.564365 1.339757,3.553451 1.339757,3.553451 0,0 -1.736955,-2.679872 -1.619135,-3.421447 0.07245,-0.456013 -0.0355,-0.453446 0.279378,-0.132004 0,0 0,0 0,0 m -1.318121,-0.05966 c 0.149226,0.775793 -0.855609,3.71674 -0.855609,3.71674 0,0 0.231207,-3.147165 0.775015,-3.664927 0.334402,-0.318385 -0.0044,-0.493678 0.08059,-0.05181 0,0 0,0 0,0 M 22.267247,24.61408 c -0.309259,0.726973 -2.791912,2.611581 -2.791912,2.611581 0,0 1.966712,-2.504581 2.70656,-2.632801 0.454952,-0.07885 0.261495,-0.392839 0.08535,0.02122 0,0 0,0 0,0 m -0.2645,-1.045001 c -0.687524,0.389139 -3.790431,0.376047 -3.790431,0.376047 0,0 3.055158,-0.980192 3.741109,-0.674777 0.421808,0.187808 0.440911,0.07709 0.04932,0.29873 0,0 0,0 0,0 m 0.448803,-1.231403 c -0.787946,-0.05719 -3.372307,-1.794092 -3.372307,-1.794092 0,0 2.998058,1.045215 3.358601,1.703867 0.221707,0.405022 0.462493,0.122801 0.01371,0.09023 0,0 0,-1e-6 0,-1e-6 m 0.869426,-0.609242 c -0.588501,-0.52706 -1.570611,-3.462677 -1.570611,-3.462677 0,0 1.909726,2.567474 1.840377,3.315139 -0.04265,0.459759 0.06542,0.447732 -0.269766,0.147538 0,0 0,0 0,0 m 1.320373,-0.006 c -0.199815,-0.764329 0.610496,-3.767198 0.610496,-3.767198 0,0 -0.0246,3.163193 -0.532872,3.715885 -0.312549,0.339864 0.03619,0.486649 -0.07762,0.05131 0,0 0,-1e-6 0,-1e-6 m 0.87725,0.598314 c 0.309259,-0.726972 2.766294,-2.598232 2.766294,-2.598232 0,0 -1.805552,2.630228 -2.535564,2.806005 -0.448904,0.10809 -0.406872,0.206286 -0.23073,-0.207772 0,0 0,-1e-6 0,-1e-6 m 0.460212,1.227537 c 0.660348,-0.433657 3.760075,-0.625541 3.760075,-0.625541 0,0 -2.989206,1.180865 -3.693902,0.92162 -0.433336,-0.159417 -0.442284,-0.04908 -0.06617,-0.296079 0,0 0,0 0,0" style="fill:url(#radialGradient6281);fill-opacity:1;stroke:none"/>
        <path inkscape:connector-curvature="0" style="fill:url(#radialGradient6283);fill-opacity:1;stroke:none" d="m 26.15278,24.133572 c 1.03425,0.107097 3.323705,1.910093 3.323705,1.910093 0,0 -3.714643,-1.389102 -3.850655,-1.99676 -0.08364,-0.373665 -0.06212,0.02567 0.52695,0.08667 0,0 0,0 0,0 m -0.611785,1.078438 c 0.758258,0.711466 1.52374,3.550921 1.52374,3.550921 0,0 -2.319868,-3.202241 -2.09714,-3.783734 0.136961,-0.357575 0.141525,-0.172411 0.5734,0.232813 0,0 0,0 0,0 m -1.298564,0.605117 c 0.231962,1.01358 -0.736592,3.772505 -0.736592,3.772505 0,0 -0.123903,-3.935698 0.385038,-4.294484 0.312961,-0.220626 0.219439,-0.05532 0.351554,0.521979 0,0 0,0 0,0 m -1.413912,-0.309694 c -0.368742,0.972193 -2.687292,2.703955 -2.687292,2.703955 0,0 2.299588,-3.223348 2.921739,-3.197456 0.382576,0.01592 -0.02443,-0.06022 -0.234447,0.4935 0,0 0,10e-7 0,10e-7 m -0.828607,-0.905101 c -0.884112,0.547264 -3.817034,0.525641 -3.817034,0.525641 0,0 3.690545,-1.391048 4.194583,-1.025408 0.309946,0.224841 0.126008,0.188067 -0.377549,0.499767 0,0 0,0 0,0 m -0.19427,-1.419751 C 20.766595,23.143594 18.37072,21.49636 18.37072,21.49636 c 0,0 3.795033,1.143969 3.970271,1.741496 0.107758,0.367434 0.05645,-0.03306 -0.535348,-0.05527 0,0 -1e-6,0 -1e-6,0 m 0.560472,-1.105163 c -0.803315,-0.660172 -1.75064,-3.43951 -1.75064,-3.43951 0,0 2.524631,3.040161 2.340751,3.635083 -0.113072,0.365833 -0.132574,0.180437 -0.590111,-0.195572 0,0 0,-1e-6 0,-1e-6 m 1.262854,-0.669224 c -0.297171,-0.996413 0.490967,-3.806011 0.490967,-3.806011 0,0 0.142782,3.964439 -0.36616,4.323224 -0.31296,0.220627 0.04445,0.05031 -0.124807,-0.517213 0,0 0,0 0,0 m 1.433496,0.237865 c 0.303447,-0.994512 2.49794,-2.868948 2.49794,-2.868948 0,0 -2.079293,3.366446 -2.70179,3.381877 -0.382789,0.0095 0.03102,0.05351 0.203849,-0.512929 0,0 10e-7,0 10e-7,0 m 0.866149,0.862413 c 0.84686,-0.603308 3.769248,-0.769247 3.769248,-0.769247 0,0 -3.588614,1.625976 -4.115293,1.293774 -0.323868,-0.204278 -0.136294,-0.180906 0.346045,-0.524527 0,0 0,0 0,0 m 0.267049,1.412263 c 1.039353,-0.02964 3.531203,1.454713 3.531203,1.454713 0,0 -3.85942,-0.893194 -4.073302,-1.478002 -0.131522,-0.359612 -0.04988,0.04017 0.542098,0.02329 0,0 10e-7,0 10e-7,0" id="path5992"/>
        <path inkscape:connector-curvature="0" id="path5994" d="m 27.693857,24.094653 c 1.519986,-0.04977 6.067066,1.320072 6.067066,1.320072 0,0 -6.037594,-0.39814 -6.689127,-0.978786 -0.400647,-0.357055 -0.24367,-0.312941 0.622061,-0.341286 0,0 0,0 0,0 m -1.008258,2.095163 c 1.294683,0.797899 4.126286,4.639057 4.126286,4.639057 0,0 -4.555632,-3.963161 -4.722575,-4.819766 -0.102659,-0.52675 -0.141118,-0.273748 0.596289,0.180708 0,0 0,1e-6 0,1e-6 m -2.03435,1.094804 c 0.627275,1.385415 0.826699,6.144614 0.826699,6.144614 0,0 -1.565216,-5.840762 -1.225546,-6.644675 0.208872,-0.494349 0.04157,-0.289024 0.398847,0.50006 0,0 0,1e-6 0,1e-6 M 22.46637,27.01307 c -0.340646,1.482156 -3.076746,5.397565 -3.076746,5.397565 0,0 2.297952,-5.57884 3.056599,-6.010224 0.466512,-0.26527 0.214168,-0.231525 0.02015,0.612659 0,0 0,0 0,0 m -1.71678,-1.551464 c -1.108674,1.041011 -5.550703,2.769537 -5.550703,2.769537 0,0 5.018236,-3.36799 5.888796,-3.306534 0.535332,0.03779 0.29337,-0.05593 -0.338092,0.536997 0,0 -10e-7,0 -10e-7,0 M 20.26818,23.321544 c -1.513387,0.149938 -6.102473,-1.19348 -6.102473,-1.19348 0,0 6.01483,0.276474 6.703062,0.813112 0.423214,0.329992 0.261385,0.294969 -0.600588,0.380368 0,0 -10e-7,0 -10e-7,0 m 0.887428,-2.147015 c -1.34383,-0.712024 -4.418386,-4.358657 -4.418386,-4.358657 0,0 4.806654,3.658344 5.029452,4.502149 0.137006,0.518879 0.154332,0.262052 -0.611066,-0.143492 0,0 0,0 0,0 m 1.846288,-1.173496 c -0.627274,-1.385416 -1.10051,-6.110731 -1.10051,-6.110731 0,0 1.941777,5.728903 1.654929,6.553141 -0.17639,0.506847 -0.197145,0.346675 -0.554418,-0.44241 0,0 -1e-6,0 -1e-6,0 m 2.322433,0.115941 c 0.242119,-1.501403 2.711596,-5.587021 2.711596,-5.587021 0,0 -1.923913,5.721581 -2.65222,6.20242 -0.447855,0.295682 -0.197279,0.239748 -0.05938,-0.615399 0,0 0,0 0,0 m 1.799916,1.450965 c 1.039012,-1.110547 5.358302,-3.121487 5.358302,-3.121487 0,0 -4.791746,3.686422 -5.664459,3.681408 -0.536655,-0.0031 -0.285629,0.07261 0.306156,-0.559921 0,0 1e-6,0 1e-6,0 m 0.598879,2.113569 c 1.500108,-0.249986 6.16539,0.787401 6.16539,0.787401 0,0 -6.019954,0.120956 -6.74209,-0.369105 -0.444062,-0.301351 -0.277709,-0.275913 0.5767,-0.418296 0,0 0,0 0,0" style="fill:url(#radialGradient6285);fill-opacity:1;stroke:none"/>
      </g>
      <path d="m 25.811225,23.642697 c 1.45e-4,0.627475 -0.334525,1.207347 -0.877909,1.521126 -0.543385,0.313779 -1.212904,0.313779 -1.756289,0 -0.543384,-0.313779 -0.878055,-0.893651 -0.877909,-1.521126 -1.46e-4,-0.627475 0.334525,-1.207347 0.877909,-1.521126 0.543385,-0.313779 1.212904,-0.313779 1.756289,0 0.543384,0.313779 0.878054,0.893651 0.877909,1.521126 0,0 0,0 0,0" id="path6191" style="opacity:0.56053814;fill:url(#radialGradient6287);fill-opacity:1;fill-rule:nonzero;stroke:none;filter:url(#filter6211)" inkscape:connector-curvature="0"/>
    </g>
  </g>
  <metadata>
    <rdf:RDF>
      <cc:Work>
        <dc:format>image/svg+xml</dc:format>
        <dc:type rdf:resource="http://purl.org/dc/dcmitype/StillImage"/>
        <cc:license rdf:resource="http://creativecommons.org/licenses/publicdomain/"/>
        <dc:publisher>
          <cc:Agent rdf:about="http://openclipart.org/">
            <dc:title>Open Clip Art Library</dc:title>
          </cc:Agent>
        </dc:publisher>
        <dc:title>supernova</dc:title>
        <dc:date>2011-10-02T09:00:43</dc:date>
        <dc:description/>
        <dc:source>http://openclipart.org/detail/162475/supernova-by-ryan_s</dc:source>
        <dc:creator>
          <cc:Agent>
            <dc:title>ryan_s</dc:title>
          </cc:Agent>
        </dc:creator>
        <dc:subject>
          <rdf:Bag>
            <rdf:li>clip art</rdf:li>
            <rdf:li>clipart</rdf:li>
            <rdf:li>star</rdf:li>
            <rdf:li>sun</rdf:li>
            <rdf:li>supernova</rdf:li>
          </rdf:Bag>
        </dc:subject>
      </cc:Work>
      <cc:License rdf:about="http://creativecommons.org/licenses/publicdomain/">
        <cc:permits rdf:resource="http://creativecommons.org/ns#Reproduction"/>
        <cc:permits rdf:resource="http://creativecommons.org/ns#Distribution"/>
        <cc:permits rdf:resource="http://creativecommons.org/ns#DerivativeWorks"/>
      </cc:License>
    </rdf:RDF>
  </metadata>
</svg>
